G04 #@! TF.GenerationSoftware,KiCad,Pcbnew,5.0.2-bee76a0~70~ubuntu18.04.1*
G04 #@! TF.CreationDate,2019-01-09T21:10:10+01:00*
G04 #@! TF.ProjectId,hackeruberaschungproto,6861636b-6572-4756-9265-726173636875,rev?*
G04 #@! TF.SameCoordinates,Original*
G04 #@! TF.FileFunction,Soldermask,Bot*
G04 #@! TF.FilePolarity,Negative*
%FSLAX46Y46*%
G04 Gerber Fmt 4.6, Leading zero omitted, Abs format (unit mm)*
G04 Created by KiCad (PCBNEW 5.0.2-bee76a0~70~ubuntu18.04.1) date wo 09 jan 2019 21:10:10 CET*
%MOMM*%
%LPD*%
G01*
G04 APERTURE LIST*
%ADD10C,0.100000*%
G04 APERTURE END LIST*
D10*
G36*
X116950442Y-87751518D02*
X117016627Y-87758037D01*
X117129853Y-87792384D01*
X117186467Y-87809557D01*
X117325087Y-87883652D01*
X117342991Y-87893222D01*
X117378729Y-87922552D01*
X117480186Y-88005814D01*
X117563448Y-88107271D01*
X117592778Y-88143009D01*
X117592779Y-88143011D01*
X117676443Y-88299533D01*
X117676443Y-88299534D01*
X117727963Y-88469373D01*
X117745359Y-88646000D01*
X117727963Y-88822627D01*
X117693616Y-88935853D01*
X117676443Y-88992467D01*
X117602348Y-89131087D01*
X117592778Y-89148991D01*
X117563448Y-89184729D01*
X117480186Y-89286186D01*
X117378729Y-89369448D01*
X117342991Y-89398778D01*
X117342989Y-89398779D01*
X117186467Y-89482443D01*
X117129853Y-89499616D01*
X117016627Y-89533963D01*
X116950442Y-89540482D01*
X116884260Y-89547000D01*
X116795740Y-89547000D01*
X116729558Y-89540482D01*
X116663373Y-89533963D01*
X116550147Y-89499616D01*
X116493533Y-89482443D01*
X116337011Y-89398779D01*
X116337009Y-89398778D01*
X116301271Y-89369448D01*
X116199814Y-89286186D01*
X116116552Y-89184729D01*
X116087222Y-89148991D01*
X116077652Y-89131087D01*
X116003557Y-88992467D01*
X115986384Y-88935853D01*
X115952037Y-88822627D01*
X115934641Y-88646000D01*
X115952037Y-88469373D01*
X116003557Y-88299534D01*
X116003557Y-88299533D01*
X116087221Y-88143011D01*
X116087222Y-88143009D01*
X116116552Y-88107271D01*
X116199814Y-88005814D01*
X116301271Y-87922552D01*
X116337009Y-87893222D01*
X116354913Y-87883652D01*
X116493533Y-87809557D01*
X116550147Y-87792384D01*
X116663373Y-87758037D01*
X116729558Y-87751518D01*
X116795740Y-87745000D01*
X116884260Y-87745000D01*
X116950442Y-87751518D01*
X116950442Y-87751518D01*
G37*
G36*
X114410442Y-87751518D02*
X114476627Y-87758037D01*
X114589853Y-87792384D01*
X114646467Y-87809557D01*
X114785087Y-87883652D01*
X114802991Y-87893222D01*
X114838729Y-87922552D01*
X114940186Y-88005814D01*
X115023448Y-88107271D01*
X115052778Y-88143009D01*
X115052779Y-88143011D01*
X115136443Y-88299533D01*
X115136443Y-88299534D01*
X115187963Y-88469373D01*
X115205359Y-88646000D01*
X115187963Y-88822627D01*
X115153616Y-88935853D01*
X115136443Y-88992467D01*
X115062348Y-89131087D01*
X115052778Y-89148991D01*
X115023448Y-89184729D01*
X114940186Y-89286186D01*
X114838729Y-89369448D01*
X114802991Y-89398778D01*
X114802989Y-89398779D01*
X114646467Y-89482443D01*
X114589853Y-89499616D01*
X114476627Y-89533963D01*
X114410442Y-89540482D01*
X114344260Y-89547000D01*
X114255740Y-89547000D01*
X114189558Y-89540482D01*
X114123373Y-89533963D01*
X114010147Y-89499616D01*
X113953533Y-89482443D01*
X113797011Y-89398779D01*
X113797009Y-89398778D01*
X113761271Y-89369448D01*
X113659814Y-89286186D01*
X113576552Y-89184729D01*
X113547222Y-89148991D01*
X113537652Y-89131087D01*
X113463557Y-88992467D01*
X113446384Y-88935853D01*
X113412037Y-88822627D01*
X113394641Y-88646000D01*
X113412037Y-88469373D01*
X113463557Y-88299534D01*
X113463557Y-88299533D01*
X113547221Y-88143011D01*
X113547222Y-88143009D01*
X113576552Y-88107271D01*
X113659814Y-88005814D01*
X113761271Y-87922552D01*
X113797009Y-87893222D01*
X113814913Y-87883652D01*
X113953533Y-87809557D01*
X114010147Y-87792384D01*
X114123373Y-87758037D01*
X114189558Y-87751518D01*
X114255740Y-87745000D01*
X114344260Y-87745000D01*
X114410442Y-87751518D01*
X114410442Y-87751518D01*
G37*
G36*
X117741000Y-87007000D02*
X115939000Y-87007000D01*
X115939000Y-85205000D01*
X117741000Y-85205000D01*
X117741000Y-87007000D01*
X117741000Y-87007000D01*
G37*
G36*
X114410443Y-85211519D02*
X114476627Y-85218037D01*
X114589853Y-85252384D01*
X114646467Y-85269557D01*
X114785087Y-85343652D01*
X114802991Y-85353222D01*
X114838729Y-85382552D01*
X114940186Y-85465814D01*
X115023448Y-85567271D01*
X115052778Y-85603009D01*
X115052779Y-85603011D01*
X115136443Y-85759533D01*
X115136443Y-85759534D01*
X115187963Y-85929373D01*
X115205359Y-86106000D01*
X115187963Y-86282627D01*
X115153616Y-86395853D01*
X115136443Y-86452467D01*
X115062348Y-86591087D01*
X115052778Y-86608991D01*
X115023448Y-86644729D01*
X114940186Y-86746186D01*
X114838729Y-86829448D01*
X114802991Y-86858778D01*
X114802989Y-86858779D01*
X114646467Y-86942443D01*
X114589853Y-86959616D01*
X114476627Y-86993963D01*
X114410442Y-87000482D01*
X114344260Y-87007000D01*
X114255740Y-87007000D01*
X114189558Y-87000482D01*
X114123373Y-86993963D01*
X114010147Y-86959616D01*
X113953533Y-86942443D01*
X113797011Y-86858779D01*
X113797009Y-86858778D01*
X113761271Y-86829448D01*
X113659814Y-86746186D01*
X113576552Y-86644729D01*
X113547222Y-86608991D01*
X113537652Y-86591087D01*
X113463557Y-86452467D01*
X113446384Y-86395853D01*
X113412037Y-86282627D01*
X113394641Y-86106000D01*
X113412037Y-85929373D01*
X113463557Y-85759534D01*
X113463557Y-85759533D01*
X113547221Y-85603011D01*
X113547222Y-85603009D01*
X113576552Y-85567271D01*
X113659814Y-85465814D01*
X113761271Y-85382552D01*
X113797009Y-85353222D01*
X113814913Y-85343652D01*
X113953533Y-85269557D01*
X114010147Y-85252384D01*
X114123373Y-85218037D01*
X114189557Y-85211519D01*
X114255740Y-85205000D01*
X114344260Y-85205000D01*
X114410443Y-85211519D01*
X114410443Y-85211519D01*
G37*
G36*
X119628228Y-81731703D02*
X119783100Y-81795853D01*
X119922481Y-81888985D01*
X120041015Y-82007519D01*
X120134147Y-82146900D01*
X120198297Y-82301772D01*
X120231000Y-82466184D01*
X120231000Y-82633816D01*
X120198297Y-82798228D01*
X120134147Y-82953100D01*
X120041015Y-83092481D01*
X119922481Y-83211015D01*
X119783100Y-83304147D01*
X119628228Y-83368297D01*
X119463816Y-83401000D01*
X119296184Y-83401000D01*
X119131772Y-83368297D01*
X118976900Y-83304147D01*
X118837519Y-83211015D01*
X118718985Y-83092481D01*
X118625853Y-82953100D01*
X118561703Y-82798228D01*
X118529000Y-82633816D01*
X118529000Y-82466184D01*
X118561703Y-82301772D01*
X118625853Y-82146900D01*
X118718985Y-82007519D01*
X118837519Y-81888985D01*
X118976900Y-81795853D01*
X119131772Y-81731703D01*
X119296184Y-81699000D01*
X119463816Y-81699000D01*
X119628228Y-81731703D01*
X119628228Y-81731703D01*
G37*
G36*
X111926821Y-81711313D02*
X111926824Y-81711314D01*
X111926825Y-81711314D01*
X112087239Y-81759975D01*
X112087241Y-81759976D01*
X112087244Y-81759977D01*
X112235078Y-81838995D01*
X112364659Y-81945341D01*
X112471005Y-82074922D01*
X112550023Y-82222756D01*
X112550024Y-82222759D01*
X112550025Y-82222761D01*
X112598686Y-82383175D01*
X112598687Y-82383179D01*
X112615117Y-82550000D01*
X112598687Y-82716821D01*
X112598686Y-82716824D01*
X112598686Y-82716825D01*
X112573993Y-82798228D01*
X112550023Y-82877244D01*
X112471005Y-83025078D01*
X112364659Y-83154659D01*
X112235078Y-83261005D01*
X112087244Y-83340023D01*
X112087241Y-83340024D01*
X112087239Y-83340025D01*
X111926825Y-83388686D01*
X111926824Y-83388686D01*
X111926821Y-83388687D01*
X111801804Y-83401000D01*
X111718196Y-83401000D01*
X111593179Y-83388687D01*
X111593176Y-83388686D01*
X111593175Y-83388686D01*
X111432761Y-83340025D01*
X111432759Y-83340024D01*
X111432756Y-83340023D01*
X111284922Y-83261005D01*
X111155341Y-83154659D01*
X111048995Y-83025078D01*
X110969977Y-82877244D01*
X110946008Y-82798228D01*
X110921314Y-82716825D01*
X110921314Y-82716824D01*
X110921313Y-82716821D01*
X110904883Y-82550000D01*
X110921313Y-82383179D01*
X110921314Y-82383175D01*
X110969975Y-82222761D01*
X110969976Y-82222759D01*
X110969977Y-82222756D01*
X111048995Y-82074922D01*
X111155341Y-81945341D01*
X111284922Y-81838995D01*
X111432756Y-81759977D01*
X111432759Y-81759976D01*
X111432761Y-81759975D01*
X111593175Y-81711314D01*
X111593176Y-81711314D01*
X111593179Y-81711313D01*
X111718196Y-81699000D01*
X111801804Y-81699000D01*
X111926821Y-81711313D01*
X111926821Y-81711313D01*
G37*
G36*
X117117396Y-76555546D02*
X117290466Y-76627234D01*
X117446230Y-76731312D01*
X117578688Y-76863770D01*
X117682766Y-77019534D01*
X117754454Y-77192604D01*
X117791000Y-77376333D01*
X117791000Y-77563667D01*
X117754454Y-77747396D01*
X117682766Y-77920466D01*
X117578688Y-78076230D01*
X117446230Y-78208688D01*
X117290466Y-78312766D01*
X117117396Y-78384454D01*
X116933667Y-78421000D01*
X116746333Y-78421000D01*
X116562604Y-78384454D01*
X116389534Y-78312766D01*
X116233770Y-78208688D01*
X116101312Y-78076230D01*
X115997234Y-77920466D01*
X115925546Y-77747396D01*
X115889000Y-77563667D01*
X115889000Y-77376333D01*
X115925546Y-77192604D01*
X115997234Y-77019534D01*
X116101312Y-76863770D01*
X116233770Y-76731312D01*
X116389534Y-76627234D01*
X116562604Y-76555546D01*
X116746333Y-76519000D01*
X116933667Y-76519000D01*
X117117396Y-76555546D01*
X117117396Y-76555546D01*
G37*
G36*
X115251000Y-78421000D02*
X113349000Y-78421000D01*
X113349000Y-76519000D01*
X115251000Y-76519000D01*
X115251000Y-78421000D01*
X115251000Y-78421000D01*
G37*
M02*
