G04 #@! TF.GenerationSoftware,KiCad,Pcbnew,5.0.2-bee76a0~70~ubuntu18.04.1*
G04 #@! TF.CreationDate,2019-01-09T21:10:10+01:00*
G04 #@! TF.ProjectId,hackeruberaschungproto,6861636b-6572-4756-9265-726173636875,rev?*
G04 #@! TF.SameCoordinates,Original*
G04 #@! TF.FileFunction,Soldermask,Top*
G04 #@! TF.FilePolarity,Negative*
%FSLAX46Y46*%
G04 Gerber Fmt 4.6, Leading zero omitted, Abs format (unit mm)*
G04 Created by KiCad (PCBNEW 5.0.2-bee76a0~70~ubuntu18.04.1) date wo 09 jan 2019 21:10:10 CET*
%MOMM*%
%LPD*%
G01*
G04 APERTURE LIST*
%ADD10C,0.100000*%
G04 APERTURE END LIST*
D10*
G36*
X114410442Y-87751518D02*
X114476627Y-87758037D01*
X114589853Y-87792384D01*
X114646467Y-87809557D01*
X114785087Y-87883652D01*
X114802991Y-87893222D01*
X114838729Y-87922552D01*
X114940186Y-88005814D01*
X115023448Y-88107271D01*
X115052778Y-88143009D01*
X115052779Y-88143011D01*
X115136443Y-88299533D01*
X115136443Y-88299534D01*
X115187963Y-88469373D01*
X115205359Y-88646000D01*
X115187963Y-88822627D01*
X115153616Y-88935853D01*
X115136443Y-88992467D01*
X115062348Y-89131087D01*
X115052778Y-89148991D01*
X115023448Y-89184729D01*
X114940186Y-89286186D01*
X114838729Y-89369448D01*
X114802991Y-89398778D01*
X114802989Y-89398779D01*
X114646467Y-89482443D01*
X114589853Y-89499616D01*
X114476627Y-89533963D01*
X114410442Y-89540482D01*
X114344260Y-89547000D01*
X114255740Y-89547000D01*
X114189558Y-89540482D01*
X114123373Y-89533963D01*
X114010147Y-89499616D01*
X113953533Y-89482443D01*
X113797011Y-89398779D01*
X113797009Y-89398778D01*
X113761271Y-89369448D01*
X113659814Y-89286186D01*
X113576552Y-89184729D01*
X113547222Y-89148991D01*
X113537652Y-89131087D01*
X113463557Y-88992467D01*
X113446384Y-88935853D01*
X113412037Y-88822627D01*
X113394641Y-88646000D01*
X113412037Y-88469373D01*
X113463557Y-88299534D01*
X113463557Y-88299533D01*
X113547221Y-88143011D01*
X113547222Y-88143009D01*
X113576552Y-88107271D01*
X113659814Y-88005814D01*
X113761271Y-87922552D01*
X113797009Y-87893222D01*
X113814913Y-87883652D01*
X113953533Y-87809557D01*
X114010147Y-87792384D01*
X114123373Y-87758037D01*
X114189558Y-87751518D01*
X114255740Y-87745000D01*
X114344260Y-87745000D01*
X114410442Y-87751518D01*
X114410442Y-87751518D01*
G37*
G36*
X116950442Y-87751518D02*
X117016627Y-87758037D01*
X117129853Y-87792384D01*
X117186467Y-87809557D01*
X117325087Y-87883652D01*
X117342991Y-87893222D01*
X117378729Y-87922552D01*
X117480186Y-88005814D01*
X117563448Y-88107271D01*
X117592778Y-88143009D01*
X117592779Y-88143011D01*
X117676443Y-88299533D01*
X117676443Y-88299534D01*
X117727963Y-88469373D01*
X117745359Y-88646000D01*
X117727963Y-88822627D01*
X117693616Y-88935853D01*
X117676443Y-88992467D01*
X117602348Y-89131087D01*
X117592778Y-89148991D01*
X117563448Y-89184729D01*
X117480186Y-89286186D01*
X117378729Y-89369448D01*
X117342991Y-89398778D01*
X117342989Y-89398779D01*
X117186467Y-89482443D01*
X117129853Y-89499616D01*
X117016627Y-89533963D01*
X116950442Y-89540482D01*
X116884260Y-89547000D01*
X116795740Y-89547000D01*
X116729558Y-89540482D01*
X116663373Y-89533963D01*
X116550147Y-89499616D01*
X116493533Y-89482443D01*
X116337011Y-89398779D01*
X116337009Y-89398778D01*
X116301271Y-89369448D01*
X116199814Y-89286186D01*
X116116552Y-89184729D01*
X116087222Y-89148991D01*
X116077652Y-89131087D01*
X116003557Y-88992467D01*
X115986384Y-88935853D01*
X115952037Y-88822627D01*
X115934641Y-88646000D01*
X115952037Y-88469373D01*
X116003557Y-88299534D01*
X116003557Y-88299533D01*
X116087221Y-88143011D01*
X116087222Y-88143009D01*
X116116552Y-88107271D01*
X116199814Y-88005814D01*
X116301271Y-87922552D01*
X116337009Y-87893222D01*
X116354913Y-87883652D01*
X116493533Y-87809557D01*
X116550147Y-87792384D01*
X116663373Y-87758037D01*
X116729558Y-87751518D01*
X116795740Y-87745000D01*
X116884260Y-87745000D01*
X116950442Y-87751518D01*
X116950442Y-87751518D01*
G37*
G36*
X117741000Y-87007000D02*
X115939000Y-87007000D01*
X115939000Y-85205000D01*
X117741000Y-85205000D01*
X117741000Y-87007000D01*
X117741000Y-87007000D01*
G37*
G36*
X114410443Y-85211519D02*
X114476627Y-85218037D01*
X114589853Y-85252384D01*
X114646467Y-85269557D01*
X114785087Y-85343652D01*
X114802991Y-85353222D01*
X114838729Y-85382552D01*
X114940186Y-85465814D01*
X115023448Y-85567271D01*
X115052778Y-85603009D01*
X115052779Y-85603011D01*
X115136443Y-85759533D01*
X115136443Y-85759534D01*
X115187963Y-85929373D01*
X115205359Y-86106000D01*
X115187963Y-86282627D01*
X115153616Y-86395853D01*
X115136443Y-86452467D01*
X115062348Y-86591087D01*
X115052778Y-86608991D01*
X115023448Y-86644729D01*
X114940186Y-86746186D01*
X114838729Y-86829448D01*
X114802991Y-86858778D01*
X114802989Y-86858779D01*
X114646467Y-86942443D01*
X114589853Y-86959616D01*
X114476627Y-86993963D01*
X114410442Y-87000482D01*
X114344260Y-87007000D01*
X114255740Y-87007000D01*
X114189558Y-87000482D01*
X114123373Y-86993963D01*
X114010147Y-86959616D01*
X113953533Y-86942443D01*
X113797011Y-86858779D01*
X113797009Y-86858778D01*
X113761271Y-86829448D01*
X113659814Y-86746186D01*
X113576552Y-86644729D01*
X113547222Y-86608991D01*
X113537652Y-86591087D01*
X113463557Y-86452467D01*
X113446384Y-86395853D01*
X113412037Y-86282627D01*
X113394641Y-86106000D01*
X113412037Y-85929373D01*
X113463557Y-85759534D01*
X113463557Y-85759533D01*
X113547221Y-85603011D01*
X113547222Y-85603009D01*
X113576552Y-85567271D01*
X113659814Y-85465814D01*
X113761271Y-85382552D01*
X113797009Y-85353222D01*
X113814913Y-85343652D01*
X113953533Y-85269557D01*
X114010147Y-85252384D01*
X114123373Y-85218037D01*
X114189557Y-85211519D01*
X114255740Y-85205000D01*
X114344260Y-85205000D01*
X114410443Y-85211519D01*
X114410443Y-85211519D01*
G37*
G36*
X119628228Y-81731703D02*
X119783100Y-81795853D01*
X119922481Y-81888985D01*
X120041015Y-82007519D01*
X120134147Y-82146900D01*
X120198297Y-82301772D01*
X120231000Y-82466184D01*
X120231000Y-82633816D01*
X120198297Y-82798228D01*
X120134147Y-82953100D01*
X120041015Y-83092481D01*
X119922481Y-83211015D01*
X119783100Y-83304147D01*
X119628228Y-83368297D01*
X119463816Y-83401000D01*
X119296184Y-83401000D01*
X119131772Y-83368297D01*
X118976900Y-83304147D01*
X118837519Y-83211015D01*
X118718985Y-83092481D01*
X118625853Y-82953100D01*
X118561703Y-82798228D01*
X118529000Y-82633816D01*
X118529000Y-82466184D01*
X118561703Y-82301772D01*
X118625853Y-82146900D01*
X118718985Y-82007519D01*
X118837519Y-81888985D01*
X118976900Y-81795853D01*
X119131772Y-81731703D01*
X119296184Y-81699000D01*
X119463816Y-81699000D01*
X119628228Y-81731703D01*
X119628228Y-81731703D01*
G37*
G36*
X111926821Y-81711313D02*
X111926824Y-81711314D01*
X111926825Y-81711314D01*
X112087239Y-81759975D01*
X112087241Y-81759976D01*
X112087244Y-81759977D01*
X112235078Y-81838995D01*
X112364659Y-81945341D01*
X112471005Y-82074922D01*
X112550023Y-82222756D01*
X112550024Y-82222759D01*
X112550025Y-82222761D01*
X112598686Y-82383175D01*
X112598687Y-82383179D01*
X112615117Y-82550000D01*
X112598687Y-82716821D01*
X112598686Y-82716824D01*
X112598686Y-82716825D01*
X112573993Y-82798228D01*
X112550023Y-82877244D01*
X112471005Y-83025078D01*
X112364659Y-83154659D01*
X112235078Y-83261005D01*
X112087244Y-83340023D01*
X112087241Y-83340024D01*
X112087239Y-83340025D01*
X111926825Y-83388686D01*
X111926824Y-83388686D01*
X111926821Y-83388687D01*
X111801804Y-83401000D01*
X111718196Y-83401000D01*
X111593179Y-83388687D01*
X111593176Y-83388686D01*
X111593175Y-83388686D01*
X111432761Y-83340025D01*
X111432759Y-83340024D01*
X111432756Y-83340023D01*
X111284922Y-83261005D01*
X111155341Y-83154659D01*
X111048995Y-83025078D01*
X110969977Y-82877244D01*
X110946008Y-82798228D01*
X110921314Y-82716825D01*
X110921314Y-82716824D01*
X110921313Y-82716821D01*
X110904883Y-82550000D01*
X110921313Y-82383179D01*
X110921314Y-82383175D01*
X110969975Y-82222761D01*
X110969976Y-82222759D01*
X110969977Y-82222756D01*
X111048995Y-82074922D01*
X111155341Y-81945341D01*
X111284922Y-81838995D01*
X111432756Y-81759977D01*
X111432759Y-81759976D01*
X111432761Y-81759975D01*
X111593175Y-81711314D01*
X111593176Y-81711314D01*
X111593179Y-81711313D01*
X111718196Y-81699000D01*
X111801804Y-81699000D01*
X111926821Y-81711313D01*
X111926821Y-81711313D01*
G37*
G36*
X115251000Y-78421000D02*
X113349000Y-78421000D01*
X113349000Y-76519000D01*
X115251000Y-76519000D01*
X115251000Y-78421000D01*
X115251000Y-78421000D01*
G37*
G36*
X117117396Y-76555546D02*
X117290466Y-76627234D01*
X117446230Y-76731312D01*
X117578688Y-76863770D01*
X117682766Y-77019534D01*
X117754454Y-77192604D01*
X117791000Y-77376333D01*
X117791000Y-77563667D01*
X117754454Y-77747396D01*
X117682766Y-77920466D01*
X117578688Y-78076230D01*
X117446230Y-78208688D01*
X117290466Y-78312766D01*
X117117396Y-78384454D01*
X116933667Y-78421000D01*
X116746333Y-78421000D01*
X116562604Y-78384454D01*
X116389534Y-78312766D01*
X116233770Y-78208688D01*
X116101312Y-78076230D01*
X115997234Y-77920466D01*
X115925546Y-77747396D01*
X115889000Y-77563667D01*
X115889000Y-77376333D01*
X115925546Y-77192604D01*
X115997234Y-77019534D01*
X116101312Y-76863770D01*
X116233770Y-76731312D01*
X116389534Y-76627234D01*
X116562604Y-76555546D01*
X116746333Y-76519000D01*
X116933667Y-76519000D01*
X117117396Y-76555546D01*
X117117396Y-76555546D01*
G37*
G36*
X114306604Y-72226347D02*
X114343145Y-72237432D01*
X114376820Y-72255431D01*
X114406341Y-72279659D01*
X114430569Y-72309180D01*
X114448568Y-72342855D01*
X114459653Y-72379396D01*
X114464000Y-72423538D01*
X114464000Y-73372462D01*
X114459653Y-73416604D01*
X114448568Y-73453145D01*
X114430569Y-73486820D01*
X114406341Y-73516341D01*
X114376820Y-73540569D01*
X114343145Y-73558568D01*
X114306604Y-73569653D01*
X114262462Y-73574000D01*
X112813538Y-73574000D01*
X112769396Y-73569653D01*
X112732855Y-73558568D01*
X112699180Y-73540569D01*
X112669659Y-73516341D01*
X112645431Y-73486820D01*
X112627432Y-73453145D01*
X112616347Y-73416604D01*
X112612000Y-73372462D01*
X112612000Y-72423538D01*
X112616347Y-72379396D01*
X112627432Y-72342855D01*
X112645431Y-72309180D01*
X112669659Y-72279659D01*
X112699180Y-72255431D01*
X112732855Y-72237432D01*
X112769396Y-72226347D01*
X112813538Y-72222000D01*
X114262462Y-72222000D01*
X114306604Y-72226347D01*
X114306604Y-72226347D01*
G37*
G36*
X118370604Y-72226347D02*
X118407145Y-72237432D01*
X118440820Y-72255431D01*
X118470341Y-72279659D01*
X118494569Y-72309180D01*
X118512568Y-72342855D01*
X118523653Y-72379396D01*
X118528000Y-72423538D01*
X118528000Y-73372462D01*
X118523653Y-73416604D01*
X118512568Y-73453145D01*
X118494569Y-73486820D01*
X118470341Y-73516341D01*
X118440820Y-73540569D01*
X118407145Y-73558568D01*
X118370604Y-73569653D01*
X118326462Y-73574000D01*
X116877538Y-73574000D01*
X116833396Y-73569653D01*
X116796855Y-73558568D01*
X116763180Y-73540569D01*
X116733659Y-73516341D01*
X116709431Y-73486820D01*
X116691432Y-73453145D01*
X116680347Y-73416604D01*
X116676000Y-73372462D01*
X116676000Y-72423538D01*
X116680347Y-72379396D01*
X116691432Y-72342855D01*
X116709431Y-72309180D01*
X116733659Y-72279659D01*
X116763180Y-72255431D01*
X116796855Y-72237432D01*
X116833396Y-72226347D01*
X116877538Y-72222000D01*
X118326462Y-72222000D01*
X118370604Y-72226347D01*
X118370604Y-72226347D01*
G37*
G36*
X114306604Y-69426347D02*
X114343145Y-69437432D01*
X114376820Y-69455431D01*
X114406341Y-69479659D01*
X114430569Y-69509180D01*
X114448568Y-69542855D01*
X114459653Y-69579396D01*
X114464000Y-69623538D01*
X114464000Y-70572462D01*
X114459653Y-70616604D01*
X114448568Y-70653145D01*
X114430569Y-70686820D01*
X114406341Y-70716341D01*
X114376820Y-70740569D01*
X114343145Y-70758568D01*
X114306604Y-70769653D01*
X114262462Y-70774000D01*
X112813538Y-70774000D01*
X112769396Y-70769653D01*
X112732855Y-70758568D01*
X112699180Y-70740569D01*
X112669659Y-70716341D01*
X112645431Y-70686820D01*
X112627432Y-70653145D01*
X112616347Y-70616604D01*
X112612000Y-70572462D01*
X112612000Y-69623538D01*
X112616347Y-69579396D01*
X112627432Y-69542855D01*
X112645431Y-69509180D01*
X112669659Y-69479659D01*
X112699180Y-69455431D01*
X112732855Y-69437432D01*
X112769396Y-69426347D01*
X112813538Y-69422000D01*
X114262462Y-69422000D01*
X114306604Y-69426347D01*
X114306604Y-69426347D01*
G37*
G36*
X118370604Y-69426347D02*
X118407145Y-69437432D01*
X118440820Y-69455431D01*
X118470341Y-69479659D01*
X118494569Y-69509180D01*
X118512568Y-69542855D01*
X118523653Y-69579396D01*
X118528000Y-69623538D01*
X118528000Y-70572462D01*
X118523653Y-70616604D01*
X118512568Y-70653145D01*
X118494569Y-70686820D01*
X118470341Y-70716341D01*
X118440820Y-70740569D01*
X118407145Y-70758568D01*
X118370604Y-70769653D01*
X118326462Y-70774000D01*
X116877538Y-70774000D01*
X116833396Y-70769653D01*
X116796855Y-70758568D01*
X116763180Y-70740569D01*
X116733659Y-70716341D01*
X116709431Y-70686820D01*
X116691432Y-70653145D01*
X116680347Y-70616604D01*
X116676000Y-70572462D01*
X116676000Y-69623538D01*
X116680347Y-69579396D01*
X116691432Y-69542855D01*
X116709431Y-69509180D01*
X116733659Y-69479659D01*
X116763180Y-69455431D01*
X116796855Y-69437432D01*
X116833396Y-69426347D01*
X116877538Y-69422000D01*
X118326462Y-69422000D01*
X118370604Y-69426347D01*
X118370604Y-69426347D01*
G37*
G36*
X119404724Y-67310005D02*
X119449841Y-67321568D01*
X119502806Y-67340846D01*
X119502807Y-67340846D01*
X120008831Y-67525024D01*
X120008833Y-67525025D01*
X120061788Y-67544299D01*
X120103791Y-67564445D01*
X120136123Y-67588699D01*
X120163094Y-67618785D01*
X120183680Y-67653559D01*
X120197087Y-67691684D01*
X120202798Y-67731688D01*
X120200595Y-67772042D01*
X120189032Y-67817159D01*
X120169754Y-67870125D01*
X119855698Y-68732989D01*
X119820943Y-68828476D01*
X119800797Y-68870479D01*
X119776543Y-68902811D01*
X119746459Y-68929780D01*
X119711680Y-68950369D01*
X119673560Y-68963775D01*
X119633555Y-68969486D01*
X119593200Y-68967283D01*
X119548083Y-68955720D01*
X119476819Y-68929782D01*
X118989093Y-68752264D01*
X118989091Y-68752263D01*
X118936136Y-68732989D01*
X118894133Y-68712843D01*
X118861801Y-68688589D01*
X118834830Y-68658503D01*
X118814244Y-68623729D01*
X118800837Y-68585604D01*
X118795126Y-68545600D01*
X118797329Y-68505246D01*
X118808892Y-68460129D01*
X118857713Y-68325995D01*
X119157706Y-67501769D01*
X119157707Y-67501767D01*
X119176981Y-67448812D01*
X119197127Y-67406809D01*
X119221381Y-67374477D01*
X119251465Y-67347508D01*
X119286244Y-67326919D01*
X119324364Y-67313513D01*
X119364369Y-67307802D01*
X119404724Y-67310005D01*
X119404724Y-67310005D01*
G37*
G36*
X111815634Y-67313513D02*
X111853759Y-67326920D01*
X111888533Y-67347506D01*
X111918619Y-67374477D01*
X111942873Y-67406809D01*
X111963019Y-67448812D01*
X111982293Y-67501767D01*
X111982294Y-67501769D01*
X112282287Y-68325995D01*
X112331108Y-68460129D01*
X112342671Y-68505246D01*
X112344874Y-68545601D01*
X112339163Y-68585606D01*
X112325757Y-68623726D01*
X112305168Y-68658505D01*
X112278199Y-68688589D01*
X112245867Y-68712843D01*
X112203864Y-68732989D01*
X112150909Y-68752263D01*
X112150907Y-68752264D01*
X111663181Y-68929782D01*
X111591917Y-68955720D01*
X111546800Y-68967283D01*
X111506446Y-68969486D01*
X111466442Y-68963775D01*
X111428317Y-68950368D01*
X111393543Y-68929782D01*
X111363457Y-68902811D01*
X111339203Y-68870479D01*
X111319057Y-68828476D01*
X111284303Y-68732989D01*
X110970246Y-67870125D01*
X110950968Y-67817159D01*
X110939405Y-67772042D01*
X110937202Y-67731687D01*
X110942913Y-67691682D01*
X110956319Y-67653562D01*
X110976908Y-67618783D01*
X111003877Y-67588699D01*
X111036209Y-67564445D01*
X111078212Y-67544299D01*
X111131167Y-67525025D01*
X111131169Y-67525024D01*
X111637193Y-67340846D01*
X111637194Y-67340846D01*
X111690159Y-67321568D01*
X111735276Y-67310005D01*
X111775630Y-67307802D01*
X111815634Y-67313513D01*
X111815634Y-67313513D01*
G37*
G36*
X117642800Y-66668717D02*
X117687917Y-66680280D01*
X117740882Y-66699558D01*
X117740883Y-66699558D01*
X118246907Y-66883736D01*
X118246909Y-66883737D01*
X118299864Y-66903011D01*
X118341867Y-66923157D01*
X118374199Y-66947411D01*
X118401170Y-66977497D01*
X118421756Y-67012271D01*
X118435163Y-67050396D01*
X118440874Y-67090400D01*
X118438671Y-67130754D01*
X118427108Y-67175871D01*
X118407830Y-67228837D01*
X118093774Y-68091701D01*
X118059019Y-68187188D01*
X118038873Y-68229191D01*
X118014619Y-68261523D01*
X117984535Y-68288492D01*
X117949756Y-68309081D01*
X117911636Y-68322487D01*
X117871631Y-68328198D01*
X117831276Y-68325995D01*
X117786159Y-68314432D01*
X117714895Y-68288494D01*
X117227169Y-68110976D01*
X117227167Y-68110975D01*
X117174212Y-68091701D01*
X117132209Y-68071555D01*
X117099877Y-68047301D01*
X117072906Y-68017215D01*
X117052320Y-67982441D01*
X117038913Y-67944316D01*
X117033202Y-67904312D01*
X117035405Y-67863958D01*
X117046968Y-67818841D01*
X117146893Y-67544299D01*
X117395782Y-66860481D01*
X117395783Y-66860479D01*
X117415057Y-66807524D01*
X117435203Y-66765521D01*
X117459457Y-66733189D01*
X117489541Y-66706220D01*
X117524320Y-66685631D01*
X117562440Y-66672225D01*
X117602445Y-66666514D01*
X117642800Y-66668717D01*
X117642800Y-66668717D01*
G37*
G36*
X113577558Y-66672225D02*
X113615683Y-66685632D01*
X113650457Y-66706218D01*
X113680543Y-66733189D01*
X113704797Y-66765521D01*
X113724943Y-66807524D01*
X113744217Y-66860479D01*
X113744218Y-66860481D01*
X113993107Y-67544299D01*
X114093032Y-67818841D01*
X114104595Y-67863958D01*
X114106798Y-67904313D01*
X114101087Y-67944318D01*
X114087681Y-67982438D01*
X114067092Y-68017217D01*
X114040123Y-68047301D01*
X114007791Y-68071555D01*
X113965788Y-68091701D01*
X113912833Y-68110975D01*
X113912831Y-68110976D01*
X113425105Y-68288494D01*
X113353841Y-68314432D01*
X113308724Y-68325995D01*
X113268370Y-68328198D01*
X113228366Y-68322487D01*
X113190241Y-68309080D01*
X113155467Y-68288494D01*
X113125381Y-68261523D01*
X113101127Y-68229191D01*
X113080981Y-68187188D01*
X113046227Y-68091701D01*
X112732170Y-67228837D01*
X112712892Y-67175871D01*
X112701329Y-67130754D01*
X112699126Y-67090399D01*
X112704837Y-67050394D01*
X112718243Y-67012274D01*
X112738832Y-66977495D01*
X112765801Y-66947411D01*
X112798133Y-66923157D01*
X112840136Y-66903011D01*
X112893091Y-66883737D01*
X112893093Y-66883736D01*
X113399117Y-66699558D01*
X113399118Y-66699558D01*
X113452083Y-66680280D01*
X113497200Y-66668717D01*
X113537554Y-66666514D01*
X113577558Y-66672225D01*
X113577558Y-66672225D01*
G37*
M02*
