G04 #@! TF.GenerationSoftware,KiCad,Pcbnew,5.0.2-bee76a0~70~ubuntu18.04.1*
G04 #@! TF.CreationDate,2019-01-09T21:10:10+01:00*
G04 #@! TF.ProjectId,hackeruberaschungproto,6861636b-6572-4756-9265-726173636875,rev?*
G04 #@! TF.SameCoordinates,Original*
G04 #@! TF.FileFunction,Copper,L1,Top*
G04 #@! TF.FilePolarity,Positive*
%FSLAX46Y46*%
G04 Gerber Fmt 4.6, Leading zero omitted, Abs format (unit mm)*
G04 Created by KiCad (PCBNEW 5.0.2-bee76a0~70~ubuntu18.04.1) date wo 09 jan 2019 21:10:10 CET*
%MOMM*%
%LPD*%
G01*
G04 APERTURE LIST*
G04 #@! TA.AperFunction,ComponentPad*
%ADD10R,1.800000X1.800000*%
G04 #@! TD*
G04 #@! TA.AperFunction,ComponentPad*
%ADD11C,1.800000*%
G04 #@! TD*
G04 #@! TA.AperFunction,Conductor*
%ADD12C,0.100000*%
G04 #@! TD*
G04 #@! TA.AperFunction,SMDPad,CuDef*
%ADD13C,1.250000*%
G04 #@! TD*
G04 #@! TA.AperFunction,ComponentPad*
%ADD14R,1.700000X1.700000*%
G04 #@! TD*
G04 #@! TA.AperFunction,ComponentPad*
%ADD15O,1.700000X1.700000*%
G04 #@! TD*
G04 #@! TA.AperFunction,ComponentPad*
%ADD16C,1.600000*%
G04 #@! TD*
G04 #@! TA.AperFunction,ComponentPad*
%ADD17O,1.600000X1.600000*%
G04 #@! TD*
G04 #@! TA.AperFunction,SMDPad,CuDef*
%ADD18C,0.975000*%
G04 #@! TD*
G04 #@! TA.AperFunction,ViaPad*
%ADD19C,0.800000*%
G04 #@! TD*
G04 #@! TA.AperFunction,Conductor*
%ADD20C,0.250000*%
G04 #@! TD*
G04 #@! TA.AperFunction,Conductor*
%ADD21C,0.254000*%
G04 #@! TD*
G04 APERTURE END LIST*
D10*
G04 #@! TO.P,D1,1*
G04 #@! TO.N,GND*
X114300000Y-77470000D03*
D11*
G04 #@! TO.P,D1,2*
G04 #@! TO.N,Net-(D1-Pad2)*
X116840000Y-77470000D03*
G04 #@! TD*
D12*
G04 #@! TO.N,GND*
G04 #@! TO.C,D2*
G36*
X114187504Y-72274204D02*
X114211773Y-72277804D01*
X114235571Y-72283765D01*
X114258671Y-72292030D01*
X114280849Y-72302520D01*
X114301893Y-72315133D01*
X114321598Y-72329747D01*
X114339777Y-72346223D01*
X114356253Y-72364402D01*
X114370867Y-72384107D01*
X114383480Y-72405151D01*
X114393970Y-72427329D01*
X114402235Y-72450429D01*
X114408196Y-72474227D01*
X114411796Y-72498496D01*
X114413000Y-72523000D01*
X114413000Y-73273000D01*
X114411796Y-73297504D01*
X114408196Y-73321773D01*
X114402235Y-73345571D01*
X114393970Y-73368671D01*
X114383480Y-73390849D01*
X114370867Y-73411893D01*
X114356253Y-73431598D01*
X114339777Y-73449777D01*
X114321598Y-73466253D01*
X114301893Y-73480867D01*
X114280849Y-73493480D01*
X114258671Y-73503970D01*
X114235571Y-73512235D01*
X114211773Y-73518196D01*
X114187504Y-73521796D01*
X114163000Y-73523000D01*
X112913000Y-73523000D01*
X112888496Y-73521796D01*
X112864227Y-73518196D01*
X112840429Y-73512235D01*
X112817329Y-73503970D01*
X112795151Y-73493480D01*
X112774107Y-73480867D01*
X112754402Y-73466253D01*
X112736223Y-73449777D01*
X112719747Y-73431598D01*
X112705133Y-73411893D01*
X112692520Y-73390849D01*
X112682030Y-73368671D01*
X112673765Y-73345571D01*
X112667804Y-73321773D01*
X112664204Y-73297504D01*
X112663000Y-73273000D01*
X112663000Y-72523000D01*
X112664204Y-72498496D01*
X112667804Y-72474227D01*
X112673765Y-72450429D01*
X112682030Y-72427329D01*
X112692520Y-72405151D01*
X112705133Y-72384107D01*
X112719747Y-72364402D01*
X112736223Y-72346223D01*
X112754402Y-72329747D01*
X112774107Y-72315133D01*
X112795151Y-72302520D01*
X112817329Y-72292030D01*
X112840429Y-72283765D01*
X112864227Y-72277804D01*
X112888496Y-72274204D01*
X112913000Y-72273000D01*
X114163000Y-72273000D01*
X114187504Y-72274204D01*
X114187504Y-72274204D01*
G37*
D13*
G04 #@! TD*
G04 #@! TO.P,D2,1*
G04 #@! TO.N,GND*
X113538000Y-72898000D03*
D12*
G04 #@! TO.N,Net-(D2-Pad2)*
G04 #@! TO.C,D2*
G36*
X114187504Y-69474204D02*
X114211773Y-69477804D01*
X114235571Y-69483765D01*
X114258671Y-69492030D01*
X114280849Y-69502520D01*
X114301893Y-69515133D01*
X114321598Y-69529747D01*
X114339777Y-69546223D01*
X114356253Y-69564402D01*
X114370867Y-69584107D01*
X114383480Y-69605151D01*
X114393970Y-69627329D01*
X114402235Y-69650429D01*
X114408196Y-69674227D01*
X114411796Y-69698496D01*
X114413000Y-69723000D01*
X114413000Y-70473000D01*
X114411796Y-70497504D01*
X114408196Y-70521773D01*
X114402235Y-70545571D01*
X114393970Y-70568671D01*
X114383480Y-70590849D01*
X114370867Y-70611893D01*
X114356253Y-70631598D01*
X114339777Y-70649777D01*
X114321598Y-70666253D01*
X114301893Y-70680867D01*
X114280849Y-70693480D01*
X114258671Y-70703970D01*
X114235571Y-70712235D01*
X114211773Y-70718196D01*
X114187504Y-70721796D01*
X114163000Y-70723000D01*
X112913000Y-70723000D01*
X112888496Y-70721796D01*
X112864227Y-70718196D01*
X112840429Y-70712235D01*
X112817329Y-70703970D01*
X112795151Y-70693480D01*
X112774107Y-70680867D01*
X112754402Y-70666253D01*
X112736223Y-70649777D01*
X112719747Y-70631598D01*
X112705133Y-70611893D01*
X112692520Y-70590849D01*
X112682030Y-70568671D01*
X112673765Y-70545571D01*
X112667804Y-70521773D01*
X112664204Y-70497504D01*
X112663000Y-70473000D01*
X112663000Y-69723000D01*
X112664204Y-69698496D01*
X112667804Y-69674227D01*
X112673765Y-69650429D01*
X112682030Y-69627329D01*
X112692520Y-69605151D01*
X112705133Y-69584107D01*
X112719747Y-69564402D01*
X112736223Y-69546223D01*
X112754402Y-69529747D01*
X112774107Y-69515133D01*
X112795151Y-69502520D01*
X112817329Y-69492030D01*
X112840429Y-69483765D01*
X112864227Y-69477804D01*
X112888496Y-69474204D01*
X112913000Y-69473000D01*
X114163000Y-69473000D01*
X114187504Y-69474204D01*
X114187504Y-69474204D01*
G37*
D13*
G04 #@! TD*
G04 #@! TO.P,D2,2*
G04 #@! TO.N,Net-(D2-Pad2)*
X113538000Y-70098000D03*
D12*
G04 #@! TO.N,Net-(D3-Pad2)*
G04 #@! TO.C,D3*
G36*
X118251504Y-69474204D02*
X118275773Y-69477804D01*
X118299571Y-69483765D01*
X118322671Y-69492030D01*
X118344849Y-69502520D01*
X118365893Y-69515133D01*
X118385598Y-69529747D01*
X118403777Y-69546223D01*
X118420253Y-69564402D01*
X118434867Y-69584107D01*
X118447480Y-69605151D01*
X118457970Y-69627329D01*
X118466235Y-69650429D01*
X118472196Y-69674227D01*
X118475796Y-69698496D01*
X118477000Y-69723000D01*
X118477000Y-70473000D01*
X118475796Y-70497504D01*
X118472196Y-70521773D01*
X118466235Y-70545571D01*
X118457970Y-70568671D01*
X118447480Y-70590849D01*
X118434867Y-70611893D01*
X118420253Y-70631598D01*
X118403777Y-70649777D01*
X118385598Y-70666253D01*
X118365893Y-70680867D01*
X118344849Y-70693480D01*
X118322671Y-70703970D01*
X118299571Y-70712235D01*
X118275773Y-70718196D01*
X118251504Y-70721796D01*
X118227000Y-70723000D01*
X116977000Y-70723000D01*
X116952496Y-70721796D01*
X116928227Y-70718196D01*
X116904429Y-70712235D01*
X116881329Y-70703970D01*
X116859151Y-70693480D01*
X116838107Y-70680867D01*
X116818402Y-70666253D01*
X116800223Y-70649777D01*
X116783747Y-70631598D01*
X116769133Y-70611893D01*
X116756520Y-70590849D01*
X116746030Y-70568671D01*
X116737765Y-70545571D01*
X116731804Y-70521773D01*
X116728204Y-70497504D01*
X116727000Y-70473000D01*
X116727000Y-69723000D01*
X116728204Y-69698496D01*
X116731804Y-69674227D01*
X116737765Y-69650429D01*
X116746030Y-69627329D01*
X116756520Y-69605151D01*
X116769133Y-69584107D01*
X116783747Y-69564402D01*
X116800223Y-69546223D01*
X116818402Y-69529747D01*
X116838107Y-69515133D01*
X116859151Y-69502520D01*
X116881329Y-69492030D01*
X116904429Y-69483765D01*
X116928227Y-69477804D01*
X116952496Y-69474204D01*
X116977000Y-69473000D01*
X118227000Y-69473000D01*
X118251504Y-69474204D01*
X118251504Y-69474204D01*
G37*
D13*
G04 #@! TD*
G04 #@! TO.P,D3,2*
G04 #@! TO.N,Net-(D3-Pad2)*
X117602000Y-70098000D03*
D12*
G04 #@! TO.N,GND*
G04 #@! TO.C,D3*
G36*
X118251504Y-72274204D02*
X118275773Y-72277804D01*
X118299571Y-72283765D01*
X118322671Y-72292030D01*
X118344849Y-72302520D01*
X118365893Y-72315133D01*
X118385598Y-72329747D01*
X118403777Y-72346223D01*
X118420253Y-72364402D01*
X118434867Y-72384107D01*
X118447480Y-72405151D01*
X118457970Y-72427329D01*
X118466235Y-72450429D01*
X118472196Y-72474227D01*
X118475796Y-72498496D01*
X118477000Y-72523000D01*
X118477000Y-73273000D01*
X118475796Y-73297504D01*
X118472196Y-73321773D01*
X118466235Y-73345571D01*
X118457970Y-73368671D01*
X118447480Y-73390849D01*
X118434867Y-73411893D01*
X118420253Y-73431598D01*
X118403777Y-73449777D01*
X118385598Y-73466253D01*
X118365893Y-73480867D01*
X118344849Y-73493480D01*
X118322671Y-73503970D01*
X118299571Y-73512235D01*
X118275773Y-73518196D01*
X118251504Y-73521796D01*
X118227000Y-73523000D01*
X116977000Y-73523000D01*
X116952496Y-73521796D01*
X116928227Y-73518196D01*
X116904429Y-73512235D01*
X116881329Y-73503970D01*
X116859151Y-73493480D01*
X116838107Y-73480867D01*
X116818402Y-73466253D01*
X116800223Y-73449777D01*
X116783747Y-73431598D01*
X116769133Y-73411893D01*
X116756520Y-73390849D01*
X116746030Y-73368671D01*
X116737765Y-73345571D01*
X116731804Y-73321773D01*
X116728204Y-73297504D01*
X116727000Y-73273000D01*
X116727000Y-72523000D01*
X116728204Y-72498496D01*
X116731804Y-72474227D01*
X116737765Y-72450429D01*
X116746030Y-72427329D01*
X116756520Y-72405151D01*
X116769133Y-72384107D01*
X116783747Y-72364402D01*
X116800223Y-72346223D01*
X116818402Y-72329747D01*
X116838107Y-72315133D01*
X116859151Y-72302520D01*
X116881329Y-72292030D01*
X116904429Y-72283765D01*
X116928227Y-72277804D01*
X116952496Y-72274204D01*
X116977000Y-72273000D01*
X118227000Y-72273000D01*
X118251504Y-72274204D01*
X118251504Y-72274204D01*
G37*
D13*
G04 #@! TD*
G04 #@! TO.P,D3,1*
G04 #@! TO.N,GND*
X117602000Y-72898000D03*
D14*
G04 #@! TO.P,J1,1*
G04 #@! TO.N,VCC*
X116840000Y-86106000D03*
D15*
G04 #@! TO.P,J1,2*
G04 #@! TO.N,Net-(J1-Pad2)*
X116840000Y-88646000D03*
G04 #@! TO.P,J1,3*
G04 #@! TO.N,GND*
X114300000Y-86106000D03*
G04 #@! TO.P,J1,4*
G04 #@! TO.N,Net-(J1-Pad4)*
X114300000Y-88646000D03*
G04 #@! TD*
D16*
G04 #@! TO.P,R1,1*
G04 #@! TO.N,Net-(D1-Pad2)*
X119380000Y-82550000D03*
D17*
G04 #@! TO.P,R1,2*
G04 #@! TO.N,VCC*
X111760000Y-82550000D03*
G04 #@! TD*
D12*
G04 #@! TO.N,Net-(D2-Pad2)*
G04 #@! TO.C,R2*
G36*
X113510415Y-66743951D02*
X113533901Y-66748489D01*
X113556829Y-66755308D01*
X113578978Y-66764341D01*
X113600135Y-66775502D01*
X113620097Y-66788683D01*
X113638670Y-66803757D01*
X113655676Y-66820579D01*
X113670952Y-66838987D01*
X113684350Y-66858803D01*
X113695741Y-66879837D01*
X113705015Y-66901886D01*
X114017109Y-67759355D01*
X114024178Y-67782208D01*
X114028972Y-67805643D01*
X114031447Y-67829435D01*
X114031577Y-67853355D01*
X114029362Y-67877173D01*
X114024824Y-67900659D01*
X114018005Y-67923587D01*
X114008972Y-67945736D01*
X113997811Y-67966893D01*
X113984630Y-67986855D01*
X113969556Y-68005428D01*
X113952734Y-68022434D01*
X113934327Y-68037710D01*
X113914510Y-68051108D01*
X113893476Y-68062499D01*
X113871427Y-68071773D01*
X113413327Y-68238508D01*
X113390474Y-68245577D01*
X113367039Y-68250371D01*
X113343247Y-68252846D01*
X113319327Y-68252976D01*
X113295509Y-68250761D01*
X113272023Y-68246223D01*
X113249095Y-68239404D01*
X113226946Y-68230371D01*
X113205789Y-68219210D01*
X113185827Y-68206029D01*
X113167254Y-68190955D01*
X113150248Y-68174133D01*
X113134972Y-68155725D01*
X113121574Y-68135909D01*
X113110183Y-68114875D01*
X113100909Y-68092826D01*
X112788815Y-67235357D01*
X112781746Y-67212504D01*
X112776952Y-67189069D01*
X112774477Y-67165277D01*
X112774347Y-67141357D01*
X112776562Y-67117539D01*
X112781100Y-67094053D01*
X112787919Y-67071125D01*
X112796952Y-67048976D01*
X112808113Y-67027819D01*
X112821294Y-67007857D01*
X112836368Y-66989284D01*
X112853190Y-66972278D01*
X112871597Y-66957002D01*
X112891414Y-66943604D01*
X112912448Y-66932213D01*
X112934497Y-66922939D01*
X113392597Y-66756204D01*
X113415450Y-66749135D01*
X113438885Y-66744341D01*
X113462677Y-66741866D01*
X113486597Y-66741736D01*
X113510415Y-66743951D01*
X113510415Y-66743951D01*
G37*
D18*
G04 #@! TD*
G04 #@! TO.P,R2,1*
G04 #@! TO.N,Net-(D2-Pad2)*
X113402962Y-67497356D03*
D12*
G04 #@! TO.N,VCC*
G04 #@! TO.C,R2*
G36*
X111748491Y-67385239D02*
X111771977Y-67389777D01*
X111794905Y-67396596D01*
X111817054Y-67405629D01*
X111838211Y-67416790D01*
X111858173Y-67429971D01*
X111876746Y-67445045D01*
X111893752Y-67461867D01*
X111909028Y-67480275D01*
X111922426Y-67500091D01*
X111933817Y-67521125D01*
X111943091Y-67543174D01*
X112255185Y-68400643D01*
X112262254Y-68423496D01*
X112267048Y-68446931D01*
X112269523Y-68470723D01*
X112269653Y-68494643D01*
X112267438Y-68518461D01*
X112262900Y-68541947D01*
X112256081Y-68564875D01*
X112247048Y-68587024D01*
X112235887Y-68608181D01*
X112222706Y-68628143D01*
X112207632Y-68646716D01*
X112190810Y-68663722D01*
X112172403Y-68678998D01*
X112152586Y-68692396D01*
X112131552Y-68703787D01*
X112109503Y-68713061D01*
X111651403Y-68879796D01*
X111628550Y-68886865D01*
X111605115Y-68891659D01*
X111581323Y-68894134D01*
X111557403Y-68894264D01*
X111533585Y-68892049D01*
X111510099Y-68887511D01*
X111487171Y-68880692D01*
X111465022Y-68871659D01*
X111443865Y-68860498D01*
X111423903Y-68847317D01*
X111405330Y-68832243D01*
X111388324Y-68815421D01*
X111373048Y-68797013D01*
X111359650Y-68777197D01*
X111348259Y-68756163D01*
X111338985Y-68734114D01*
X111026891Y-67876645D01*
X111019822Y-67853792D01*
X111015028Y-67830357D01*
X111012553Y-67806565D01*
X111012423Y-67782645D01*
X111014638Y-67758827D01*
X111019176Y-67735341D01*
X111025995Y-67712413D01*
X111035028Y-67690264D01*
X111046189Y-67669107D01*
X111059370Y-67649145D01*
X111074444Y-67630572D01*
X111091266Y-67613566D01*
X111109673Y-67598290D01*
X111129490Y-67584892D01*
X111150524Y-67573501D01*
X111172573Y-67564227D01*
X111630673Y-67397492D01*
X111653526Y-67390423D01*
X111676961Y-67385629D01*
X111700753Y-67383154D01*
X111724673Y-67383024D01*
X111748491Y-67385239D01*
X111748491Y-67385239D01*
G37*
D18*
G04 #@! TD*
G04 #@! TO.P,R2,2*
G04 #@! TO.N,VCC*
X111641038Y-68138644D03*
D12*
G04 #@! TO.N,VCC*
G04 #@! TO.C,R3*
G36*
X117677323Y-66741866D02*
X117701115Y-66744341D01*
X117724550Y-66749135D01*
X117747403Y-66756204D01*
X118205503Y-66922939D01*
X118227552Y-66932213D01*
X118248586Y-66943604D01*
X118268402Y-66957002D01*
X118286810Y-66972278D01*
X118303632Y-66989284D01*
X118318706Y-67007857D01*
X118331887Y-67027819D01*
X118343048Y-67048976D01*
X118352081Y-67071125D01*
X118358900Y-67094053D01*
X118363438Y-67117539D01*
X118365653Y-67141357D01*
X118365523Y-67165277D01*
X118363048Y-67189069D01*
X118358254Y-67212504D01*
X118351185Y-67235357D01*
X118039091Y-68092826D01*
X118029817Y-68114875D01*
X118018426Y-68135909D01*
X118005028Y-68155726D01*
X117989752Y-68174133D01*
X117972746Y-68190955D01*
X117954173Y-68206029D01*
X117934211Y-68219210D01*
X117913054Y-68230371D01*
X117890905Y-68239404D01*
X117867977Y-68246223D01*
X117844491Y-68250761D01*
X117820673Y-68252976D01*
X117796753Y-68252846D01*
X117772961Y-68250371D01*
X117749526Y-68245577D01*
X117726673Y-68238508D01*
X117268573Y-68071773D01*
X117246524Y-68062499D01*
X117225490Y-68051108D01*
X117205674Y-68037710D01*
X117187266Y-68022434D01*
X117170444Y-68005428D01*
X117155370Y-67986855D01*
X117142189Y-67966893D01*
X117131028Y-67945736D01*
X117121995Y-67923587D01*
X117115176Y-67900659D01*
X117110638Y-67877173D01*
X117108423Y-67853355D01*
X117108553Y-67829435D01*
X117111028Y-67805643D01*
X117115822Y-67782208D01*
X117122891Y-67759355D01*
X117434985Y-66901886D01*
X117444259Y-66879837D01*
X117455650Y-66858803D01*
X117469048Y-66838986D01*
X117484324Y-66820579D01*
X117501330Y-66803757D01*
X117519903Y-66788683D01*
X117539865Y-66775502D01*
X117561022Y-66764341D01*
X117583171Y-66755308D01*
X117606099Y-66748489D01*
X117629585Y-66743951D01*
X117653403Y-66741736D01*
X117677323Y-66741866D01*
X117677323Y-66741866D01*
G37*
D18*
G04 #@! TD*
G04 #@! TO.P,R3,2*
G04 #@! TO.N,VCC*
X117737038Y-67497356D03*
D12*
G04 #@! TO.N,Net-(D3-Pad2)*
G04 #@! TO.C,R3*
G36*
X119439247Y-67383154D02*
X119463039Y-67385629D01*
X119486474Y-67390423D01*
X119509327Y-67397492D01*
X119967427Y-67564227D01*
X119989476Y-67573501D01*
X120010510Y-67584892D01*
X120030326Y-67598290D01*
X120048734Y-67613566D01*
X120065556Y-67630572D01*
X120080630Y-67649145D01*
X120093811Y-67669107D01*
X120104972Y-67690264D01*
X120114005Y-67712413D01*
X120120824Y-67735341D01*
X120125362Y-67758827D01*
X120127577Y-67782645D01*
X120127447Y-67806565D01*
X120124972Y-67830357D01*
X120120178Y-67853792D01*
X120113109Y-67876645D01*
X119801015Y-68734114D01*
X119791741Y-68756163D01*
X119780350Y-68777197D01*
X119766952Y-68797014D01*
X119751676Y-68815421D01*
X119734670Y-68832243D01*
X119716097Y-68847317D01*
X119696135Y-68860498D01*
X119674978Y-68871659D01*
X119652829Y-68880692D01*
X119629901Y-68887511D01*
X119606415Y-68892049D01*
X119582597Y-68894264D01*
X119558677Y-68894134D01*
X119534885Y-68891659D01*
X119511450Y-68886865D01*
X119488597Y-68879796D01*
X119030497Y-68713061D01*
X119008448Y-68703787D01*
X118987414Y-68692396D01*
X118967598Y-68678998D01*
X118949190Y-68663722D01*
X118932368Y-68646716D01*
X118917294Y-68628143D01*
X118904113Y-68608181D01*
X118892952Y-68587024D01*
X118883919Y-68564875D01*
X118877100Y-68541947D01*
X118872562Y-68518461D01*
X118870347Y-68494643D01*
X118870477Y-68470723D01*
X118872952Y-68446931D01*
X118877746Y-68423496D01*
X118884815Y-68400643D01*
X119196909Y-67543174D01*
X119206183Y-67521125D01*
X119217574Y-67500091D01*
X119230972Y-67480274D01*
X119246248Y-67461867D01*
X119263254Y-67445045D01*
X119281827Y-67429971D01*
X119301789Y-67416790D01*
X119322946Y-67405629D01*
X119345095Y-67396596D01*
X119368023Y-67389777D01*
X119391509Y-67385239D01*
X119415327Y-67383024D01*
X119439247Y-67383154D01*
X119439247Y-67383154D01*
G37*
D18*
G04 #@! TD*
G04 #@! TO.P,R3,1*
G04 #@! TO.N,Net-(D3-Pad2)*
X119498962Y-68138644D03*
D19*
G04 #@! TO.N,VCC*
X112677962Y-68834000D03*
X116586000Y-67564000D03*
G04 #@! TD*
D20*
G04 #@! TO.N,GND*
X114300000Y-73660000D02*
X113538000Y-72898000D01*
X114300000Y-77470000D02*
X114300000Y-73660000D01*
X114513000Y-72898000D02*
X117602000Y-72898000D01*
X113538000Y-72898000D02*
X114513000Y-72898000D01*
X114300000Y-86106000D02*
X114300000Y-77470000D01*
G04 #@! TO.N,Net-(D1-Pad2)*
X117348000Y-82550000D02*
X119380000Y-82550000D01*
X116840000Y-77470000D02*
X116840000Y-82042000D01*
X116840000Y-82042000D02*
X117348000Y-82550000D01*
G04 #@! TO.N,Net-(D2-Pad2)*
X113402962Y-69962962D02*
X113538000Y-70098000D01*
X113402962Y-67497356D02*
X113402962Y-69962962D01*
G04 #@! TO.N,Net-(D3-Pad2)*
X117602000Y-70035606D02*
X117602000Y-70098000D01*
X119498962Y-68138644D02*
X117602000Y-70035606D01*
G04 #@! TO.N,VCC*
X111844000Y-82550000D02*
X111760000Y-82550000D01*
X111760000Y-68257606D02*
X111641038Y-68138644D01*
X111760000Y-82550000D02*
X111760000Y-68257606D01*
X113830998Y-87376000D02*
X111760000Y-85305002D01*
X111760000Y-85305002D02*
X111760000Y-82550000D01*
X116670000Y-87376000D02*
X113830998Y-87376000D01*
X116840000Y-86106000D02*
X116840000Y-87206000D01*
X116840000Y-87206000D02*
X116670000Y-87376000D01*
X111641038Y-68138644D02*
X111982606Y-68138644D01*
X111982606Y-68138644D02*
X112677962Y-68834000D01*
X117670394Y-67564000D02*
X117737038Y-67497356D01*
X116586000Y-67564000D02*
X117670394Y-67564000D01*
G04 #@! TD*
D21*
G04 #@! TO.N,GND*
G36*
X115708569Y-66977720D02*
X115551000Y-67358126D01*
X115551000Y-67769874D01*
X115708569Y-68150280D01*
X115999720Y-68441431D01*
X116380126Y-68599000D01*
X116791874Y-68599000D01*
X116864084Y-68569090D01*
X117047136Y-68680168D01*
X117446597Y-68825560D01*
X116977000Y-68825560D01*
X116633565Y-68893874D01*
X116342414Y-69088414D01*
X116147874Y-69379565D01*
X116079560Y-69723000D01*
X116079560Y-70473000D01*
X116147874Y-70816435D01*
X116342414Y-71107586D01*
X116633565Y-71302126D01*
X116977000Y-71370440D01*
X118227000Y-71370440D01*
X118570435Y-71302126D01*
X118861586Y-71107586D01*
X119056126Y-70816435D01*
X119124440Y-70473000D01*
X119124440Y-69723000D01*
X119102037Y-69610371D01*
X119235676Y-69476732D01*
X119267160Y-69488191D01*
X119610837Y-69541088D01*
X119948597Y-69458439D01*
X120156210Y-69306212D01*
X119941319Y-80695449D01*
X119940001Y-80702074D01*
X119940001Y-80765291D01*
X119938808Y-80828519D01*
X119940001Y-80835170D01*
X119940001Y-81228727D01*
X119665439Y-81115000D01*
X119094561Y-81115000D01*
X118567138Y-81333466D01*
X118163466Y-81737138D01*
X118141570Y-81790000D01*
X117662802Y-81790000D01*
X117600000Y-81727198D01*
X117600000Y-78816669D01*
X117709507Y-78771310D01*
X118141310Y-78339507D01*
X118375000Y-77775330D01*
X118375000Y-77164670D01*
X118141310Y-76600493D01*
X117709507Y-76168690D01*
X117145330Y-75935000D01*
X116534670Y-75935000D01*
X115970493Y-76168690D01*
X115794139Y-76345044D01*
X115738327Y-76210301D01*
X115559698Y-76031673D01*
X115326309Y-75935000D01*
X114585750Y-75935000D01*
X114427000Y-76093750D01*
X114427000Y-77343000D01*
X114447000Y-77343000D01*
X114447000Y-77597000D01*
X114427000Y-77597000D01*
X114427000Y-78846250D01*
X114585750Y-79005000D01*
X115326309Y-79005000D01*
X115559698Y-78908327D01*
X115738327Y-78729699D01*
X115794139Y-78594956D01*
X115970493Y-78771310D01*
X116080000Y-78816669D01*
X116080001Y-81967148D01*
X116065112Y-82042000D01*
X116124097Y-82338537D01*
X116215378Y-82475148D01*
X116292072Y-82589929D01*
X116355527Y-82632328D01*
X116757672Y-83034475D01*
X116800071Y-83097929D01*
X116863524Y-83140327D01*
X116863526Y-83140329D01*
X116988902Y-83224102D01*
X117051463Y-83265904D01*
X117273148Y-83310000D01*
X117273152Y-83310000D01*
X117347999Y-83324888D01*
X117422846Y-83310000D01*
X118141570Y-83310000D01*
X118163466Y-83362862D01*
X118567138Y-83766534D01*
X119094561Y-83985000D01*
X119665439Y-83985000D01*
X119940000Y-83871273D01*
X119940000Y-84230473D01*
X118333494Y-89968000D01*
X117534416Y-89968000D01*
X117910625Y-89716625D01*
X118238839Y-89225418D01*
X118354092Y-88646000D01*
X118238839Y-88066582D01*
X117910625Y-87575375D01*
X117892381Y-87563184D01*
X117937765Y-87554157D01*
X118147809Y-87413809D01*
X118288157Y-87203765D01*
X118337440Y-86956000D01*
X118337440Y-85256000D01*
X118288157Y-85008235D01*
X118147809Y-84798191D01*
X117937765Y-84657843D01*
X117690000Y-84608560D01*
X115990000Y-84608560D01*
X115742235Y-84657843D01*
X115532191Y-84798191D01*
X115391843Y-85008235D01*
X115371261Y-85111708D01*
X115066924Y-84834355D01*
X114656890Y-84664524D01*
X114427000Y-84785845D01*
X114427000Y-85979000D01*
X114447000Y-85979000D01*
X114447000Y-86233000D01*
X114427000Y-86233000D01*
X114427000Y-86253000D01*
X114173000Y-86253000D01*
X114173000Y-86233000D01*
X114153000Y-86233000D01*
X114153000Y-85979000D01*
X114173000Y-85979000D01*
X114173000Y-84785845D01*
X113943110Y-84664524D01*
X113533076Y-84834355D01*
X113104817Y-85224642D01*
X112992853Y-85463053D01*
X112520000Y-84990201D01*
X112520000Y-83768043D01*
X112794577Y-83584577D01*
X113111740Y-83109909D01*
X113223113Y-82550000D01*
X113111740Y-81990091D01*
X112794577Y-81515423D01*
X112520000Y-81331957D01*
X112520000Y-77755750D01*
X112765000Y-77755750D01*
X112765000Y-78496310D01*
X112861673Y-78729699D01*
X113040302Y-78908327D01*
X113273691Y-79005000D01*
X114014250Y-79005000D01*
X114173000Y-78846250D01*
X114173000Y-77597000D01*
X112923750Y-77597000D01*
X112765000Y-77755750D01*
X112520000Y-77755750D01*
X112520000Y-76443690D01*
X112765000Y-76443690D01*
X112765000Y-77184250D01*
X112923750Y-77343000D01*
X114173000Y-77343000D01*
X114173000Y-76093750D01*
X114014250Y-75935000D01*
X113273691Y-75935000D01*
X113040302Y-76031673D01*
X112861673Y-76210301D01*
X112765000Y-76443690D01*
X112520000Y-76443690D01*
X112520000Y-74151087D01*
X112536690Y-74158000D01*
X113252250Y-74158000D01*
X113411000Y-73999250D01*
X113411000Y-73025000D01*
X113665000Y-73025000D01*
X113665000Y-73999250D01*
X113823750Y-74158000D01*
X114539310Y-74158000D01*
X114772699Y-74061327D01*
X114951327Y-73882698D01*
X115048000Y-73649309D01*
X115048000Y-73183750D01*
X116092000Y-73183750D01*
X116092000Y-73649309D01*
X116188673Y-73882698D01*
X116367301Y-74061327D01*
X116600690Y-74158000D01*
X117316250Y-74158000D01*
X117475000Y-73999250D01*
X117475000Y-73025000D01*
X117729000Y-73025000D01*
X117729000Y-73999250D01*
X117887750Y-74158000D01*
X118603310Y-74158000D01*
X118836699Y-74061327D01*
X119015327Y-73882698D01*
X119112000Y-73649309D01*
X119112000Y-73183750D01*
X118953250Y-73025000D01*
X117729000Y-73025000D01*
X117475000Y-73025000D01*
X116250750Y-73025000D01*
X116092000Y-73183750D01*
X115048000Y-73183750D01*
X114889250Y-73025000D01*
X113665000Y-73025000D01*
X113411000Y-73025000D01*
X113391000Y-73025000D01*
X113391000Y-72771000D01*
X113411000Y-72771000D01*
X113411000Y-71796750D01*
X113665000Y-71796750D01*
X113665000Y-72771000D01*
X114889250Y-72771000D01*
X115048000Y-72612250D01*
X115048000Y-72146691D01*
X116092000Y-72146691D01*
X116092000Y-72612250D01*
X116250750Y-72771000D01*
X117475000Y-72771000D01*
X117475000Y-71796750D01*
X117729000Y-71796750D01*
X117729000Y-72771000D01*
X118953250Y-72771000D01*
X119112000Y-72612250D01*
X119112000Y-72146691D01*
X119015327Y-71913302D01*
X118836699Y-71734673D01*
X118603310Y-71638000D01*
X117887750Y-71638000D01*
X117729000Y-71796750D01*
X117475000Y-71796750D01*
X117316250Y-71638000D01*
X116600690Y-71638000D01*
X116367301Y-71734673D01*
X116188673Y-71913302D01*
X116092000Y-72146691D01*
X115048000Y-72146691D01*
X114951327Y-71913302D01*
X114772699Y-71734673D01*
X114539310Y-71638000D01*
X113823750Y-71638000D01*
X113665000Y-71796750D01*
X113411000Y-71796750D01*
X113252250Y-71638000D01*
X112536690Y-71638000D01*
X112520000Y-71644913D01*
X112520000Y-71269008D01*
X112569565Y-71302126D01*
X112913000Y-71370440D01*
X114163000Y-71370440D01*
X114506435Y-71302126D01*
X114797586Y-71107586D01*
X114992126Y-70816435D01*
X115060440Y-70473000D01*
X115060440Y-69723000D01*
X114992126Y-69379565D01*
X114797586Y-69088414D01*
X114506435Y-68893874D01*
X114163000Y-68825560D01*
X114162962Y-68825560D01*
X114162962Y-68637631D01*
X114390139Y-68499777D01*
X114595752Y-68219355D01*
X114678401Y-67881595D01*
X114625503Y-67537917D01*
X114338724Y-66750000D01*
X115936289Y-66750000D01*
X115708569Y-66977720D01*
X115708569Y-66977720D01*
G37*
X115708569Y-66977720D02*
X115551000Y-67358126D01*
X115551000Y-67769874D01*
X115708569Y-68150280D01*
X115999720Y-68441431D01*
X116380126Y-68599000D01*
X116791874Y-68599000D01*
X116864084Y-68569090D01*
X117047136Y-68680168D01*
X117446597Y-68825560D01*
X116977000Y-68825560D01*
X116633565Y-68893874D01*
X116342414Y-69088414D01*
X116147874Y-69379565D01*
X116079560Y-69723000D01*
X116079560Y-70473000D01*
X116147874Y-70816435D01*
X116342414Y-71107586D01*
X116633565Y-71302126D01*
X116977000Y-71370440D01*
X118227000Y-71370440D01*
X118570435Y-71302126D01*
X118861586Y-71107586D01*
X119056126Y-70816435D01*
X119124440Y-70473000D01*
X119124440Y-69723000D01*
X119102037Y-69610371D01*
X119235676Y-69476732D01*
X119267160Y-69488191D01*
X119610837Y-69541088D01*
X119948597Y-69458439D01*
X120156210Y-69306212D01*
X119941319Y-80695449D01*
X119940001Y-80702074D01*
X119940001Y-80765291D01*
X119938808Y-80828519D01*
X119940001Y-80835170D01*
X119940001Y-81228727D01*
X119665439Y-81115000D01*
X119094561Y-81115000D01*
X118567138Y-81333466D01*
X118163466Y-81737138D01*
X118141570Y-81790000D01*
X117662802Y-81790000D01*
X117600000Y-81727198D01*
X117600000Y-78816669D01*
X117709507Y-78771310D01*
X118141310Y-78339507D01*
X118375000Y-77775330D01*
X118375000Y-77164670D01*
X118141310Y-76600493D01*
X117709507Y-76168690D01*
X117145330Y-75935000D01*
X116534670Y-75935000D01*
X115970493Y-76168690D01*
X115794139Y-76345044D01*
X115738327Y-76210301D01*
X115559698Y-76031673D01*
X115326309Y-75935000D01*
X114585750Y-75935000D01*
X114427000Y-76093750D01*
X114427000Y-77343000D01*
X114447000Y-77343000D01*
X114447000Y-77597000D01*
X114427000Y-77597000D01*
X114427000Y-78846250D01*
X114585750Y-79005000D01*
X115326309Y-79005000D01*
X115559698Y-78908327D01*
X115738327Y-78729699D01*
X115794139Y-78594956D01*
X115970493Y-78771310D01*
X116080000Y-78816669D01*
X116080001Y-81967148D01*
X116065112Y-82042000D01*
X116124097Y-82338537D01*
X116215378Y-82475148D01*
X116292072Y-82589929D01*
X116355527Y-82632328D01*
X116757672Y-83034475D01*
X116800071Y-83097929D01*
X116863524Y-83140327D01*
X116863526Y-83140329D01*
X116988902Y-83224102D01*
X117051463Y-83265904D01*
X117273148Y-83310000D01*
X117273152Y-83310000D01*
X117347999Y-83324888D01*
X117422846Y-83310000D01*
X118141570Y-83310000D01*
X118163466Y-83362862D01*
X118567138Y-83766534D01*
X119094561Y-83985000D01*
X119665439Y-83985000D01*
X119940000Y-83871273D01*
X119940000Y-84230473D01*
X118333494Y-89968000D01*
X117534416Y-89968000D01*
X117910625Y-89716625D01*
X118238839Y-89225418D01*
X118354092Y-88646000D01*
X118238839Y-88066582D01*
X117910625Y-87575375D01*
X117892381Y-87563184D01*
X117937765Y-87554157D01*
X118147809Y-87413809D01*
X118288157Y-87203765D01*
X118337440Y-86956000D01*
X118337440Y-85256000D01*
X118288157Y-85008235D01*
X118147809Y-84798191D01*
X117937765Y-84657843D01*
X117690000Y-84608560D01*
X115990000Y-84608560D01*
X115742235Y-84657843D01*
X115532191Y-84798191D01*
X115391843Y-85008235D01*
X115371261Y-85111708D01*
X115066924Y-84834355D01*
X114656890Y-84664524D01*
X114427000Y-84785845D01*
X114427000Y-85979000D01*
X114447000Y-85979000D01*
X114447000Y-86233000D01*
X114427000Y-86233000D01*
X114427000Y-86253000D01*
X114173000Y-86253000D01*
X114173000Y-86233000D01*
X114153000Y-86233000D01*
X114153000Y-85979000D01*
X114173000Y-85979000D01*
X114173000Y-84785845D01*
X113943110Y-84664524D01*
X113533076Y-84834355D01*
X113104817Y-85224642D01*
X112992853Y-85463053D01*
X112520000Y-84990201D01*
X112520000Y-83768043D01*
X112794577Y-83584577D01*
X113111740Y-83109909D01*
X113223113Y-82550000D01*
X113111740Y-81990091D01*
X112794577Y-81515423D01*
X112520000Y-81331957D01*
X112520000Y-77755750D01*
X112765000Y-77755750D01*
X112765000Y-78496310D01*
X112861673Y-78729699D01*
X113040302Y-78908327D01*
X113273691Y-79005000D01*
X114014250Y-79005000D01*
X114173000Y-78846250D01*
X114173000Y-77597000D01*
X112923750Y-77597000D01*
X112765000Y-77755750D01*
X112520000Y-77755750D01*
X112520000Y-76443690D01*
X112765000Y-76443690D01*
X112765000Y-77184250D01*
X112923750Y-77343000D01*
X114173000Y-77343000D01*
X114173000Y-76093750D01*
X114014250Y-75935000D01*
X113273691Y-75935000D01*
X113040302Y-76031673D01*
X112861673Y-76210301D01*
X112765000Y-76443690D01*
X112520000Y-76443690D01*
X112520000Y-74151087D01*
X112536690Y-74158000D01*
X113252250Y-74158000D01*
X113411000Y-73999250D01*
X113411000Y-73025000D01*
X113665000Y-73025000D01*
X113665000Y-73999250D01*
X113823750Y-74158000D01*
X114539310Y-74158000D01*
X114772699Y-74061327D01*
X114951327Y-73882698D01*
X115048000Y-73649309D01*
X115048000Y-73183750D01*
X116092000Y-73183750D01*
X116092000Y-73649309D01*
X116188673Y-73882698D01*
X116367301Y-74061327D01*
X116600690Y-74158000D01*
X117316250Y-74158000D01*
X117475000Y-73999250D01*
X117475000Y-73025000D01*
X117729000Y-73025000D01*
X117729000Y-73999250D01*
X117887750Y-74158000D01*
X118603310Y-74158000D01*
X118836699Y-74061327D01*
X119015327Y-73882698D01*
X119112000Y-73649309D01*
X119112000Y-73183750D01*
X118953250Y-73025000D01*
X117729000Y-73025000D01*
X117475000Y-73025000D01*
X116250750Y-73025000D01*
X116092000Y-73183750D01*
X115048000Y-73183750D01*
X114889250Y-73025000D01*
X113665000Y-73025000D01*
X113411000Y-73025000D01*
X113391000Y-73025000D01*
X113391000Y-72771000D01*
X113411000Y-72771000D01*
X113411000Y-71796750D01*
X113665000Y-71796750D01*
X113665000Y-72771000D01*
X114889250Y-72771000D01*
X115048000Y-72612250D01*
X115048000Y-72146691D01*
X116092000Y-72146691D01*
X116092000Y-72612250D01*
X116250750Y-72771000D01*
X117475000Y-72771000D01*
X117475000Y-71796750D01*
X117729000Y-71796750D01*
X117729000Y-72771000D01*
X118953250Y-72771000D01*
X119112000Y-72612250D01*
X119112000Y-72146691D01*
X119015327Y-71913302D01*
X118836699Y-71734673D01*
X118603310Y-71638000D01*
X117887750Y-71638000D01*
X117729000Y-71796750D01*
X117475000Y-71796750D01*
X117316250Y-71638000D01*
X116600690Y-71638000D01*
X116367301Y-71734673D01*
X116188673Y-71913302D01*
X116092000Y-72146691D01*
X115048000Y-72146691D01*
X114951327Y-71913302D01*
X114772699Y-71734673D01*
X114539310Y-71638000D01*
X113823750Y-71638000D01*
X113665000Y-71796750D01*
X113411000Y-71796750D01*
X113252250Y-71638000D01*
X112536690Y-71638000D01*
X112520000Y-71644913D01*
X112520000Y-71269008D01*
X112569565Y-71302126D01*
X112913000Y-71370440D01*
X114163000Y-71370440D01*
X114506435Y-71302126D01*
X114797586Y-71107586D01*
X114992126Y-70816435D01*
X115060440Y-70473000D01*
X115060440Y-69723000D01*
X114992126Y-69379565D01*
X114797586Y-69088414D01*
X114506435Y-68893874D01*
X114163000Y-68825560D01*
X114162962Y-68825560D01*
X114162962Y-68637631D01*
X114390139Y-68499777D01*
X114595752Y-68219355D01*
X114678401Y-67881595D01*
X114625503Y-67537917D01*
X114338724Y-66750000D01*
X115936289Y-66750000D01*
X115708569Y-66977720D01*
G04 #@! TD*
M02*
